<svg width="24" height="24" viewBox="0 0 24 24" fill="none" xmlns="http://www.w3.org/2000/svg">
<g clip-path="url(#clip0_131_2787)">
<path d="M24 12C24 12.552 23.553 13 23 13H20.534C20.082 13 19.685 13.305 19.568 13.74L17.891 19.982C17.7 20.607 17.166 21 16.55 21H16.533C15.91 20.993 15.378 20.585 15.209 19.986L11.935 6.75996L8.757 17.999C8.566 18.596 8.067 18.975 7.477 18.998C6.865 19.031 6.358 18.683 6.132 18.136L4.532 13.662C4.389 13.266 4.011 12.999 3.59 12.999H1C0.447 12.999 0 12.551 0 11.999C0 11.447 0.447 10.999 1 10.999H3.591C4.855 10.999 5.989 11.798 6.416 12.988L7.354 15.614L10.638 3.99896C10.839 3.37396 11.365 2.97196 11.999 2.99896C12.617 3.00996 13.145 3.41696 13.314 4.01096L16.573 17.177L17.635 13.221C17.986 11.913 19.177 10.999 20.532 10.999H22.998C23.551 10.999 23.998 11.447 23.998 11.999L24 12Z" fill="#56C596"/>
</g>
<defs>
<clipPath id="clip0_131_2787">
<rect width="24" height="24" fill="white"/>
</clipPath>
</defs>
</svg>
