<svg width="40" height="40" viewBox="0 0 40 40" fill="none" xmlns="http://www.w3.org/2000/svg">
<circle cx="20" cy="20" r="20" fill="url(#paint0_linear_129_1979)"/>
<path d="M27.1742 9.18759C26.3284 8.67713 25.7802 8.86264 25.4946 9.06127C25.18 8.86066 24.863 8.69183 24.55 8.57464C23.7102 8.26043 22.3481 8.08008 20.8127 8.08008C19.2774 8.08008 17.9149 8.26043 17.0755 8.57464C16.7621 8.69183 16.4451 8.86066 16.1305 9.06127C15.844 8.86344 15.2958 8.67991 14.4525 9.18918C12.5334 10.3495 8.42079 9.88991 10.8551 14.8892C11.2277 15.6531 11.5173 16.1977 11.7727 16.5211C11.7497 18.4469 12.1886 20.7755 13.0757 22.4984C12.7654 22.9989 12.3003 23.9872 12.3388 25.3526C10.1901 24.8342 8.47998 22.3045 8.47998 22.3045C8.47998 25.4642 10.9393 26.8966 12.5946 26.9121C12.746 27.4254 12.9672 27.9704 13.2898 28.5476C13.6286 29.1534 14.6599 29.5744 15.5378 29.7802C15.7217 30.4436 15.9541 30.8981 16.2417 31.1789C16.8006 31.7235 17.8712 31.9146 18.7423 31.9146C18.7955 31.9146 18.8484 31.9142 18.8996 31.913C19.6949 31.8912 20.3674 31.7168 20.8131 31.4236C21.2588 31.7168 21.931 31.8916 22.7255 31.913C23.6208 31.9337 24.7899 31.7565 25.3838 31.1785C25.6674 30.902 25.8986 30.4444 26.0829 29.7806C26.9616 29.5748 27.9961 29.1546 28.3361 28.5472C29.881 25.7852 29.1874 23.6921 28.7047 22.7685C29.6243 21.0004 29.9684 18.4862 29.8826 16.4814C30.1304 16.1536 30.4125 15.6229 30.7704 14.8872C33.2055 9.88753 29.0928 10.3479 27.1742 9.18759ZM13.9885 28.1817C12.7114 25.898 13.1221 24.1847 13.544 23.2877C13.892 23.7926 14.2908 24.2073 14.7397 24.4985C14.7906 24.605 14.8791 24.7722 15.0063 24.9736C15.0631 26.648 15.1739 27.9485 15.3499 28.9329C14.6336 28.7152 14.116 28.4093 13.9885 28.1817ZM15.303 23.4911C14.6571 22.8555 14.6571 21.8227 15.303 21.1883L17.8537 18.6845C18.1484 18.3949 18.5171 18.1625 18.9314 17.9861C18.7924 18.1347 18.7078 18.3238 18.7078 18.5772C18.7078 19.2787 20.3829 19.9004 20.8131 19.9004C21.2426 19.9004 22.9185 19.2787 22.9185 18.5772C22.9185 18.3234 22.8335 18.1343 22.6949 17.9857C23.11 18.1621 23.479 18.3949 23.775 18.6841L26.3237 21.1883C26.97 21.8227 26.9696 22.8555 26.3241 23.4907C26.0118 23.7966 25.5971 23.9642 25.1558 23.9642C24.7542 23.9642 24.3784 23.8192 24.0777 23.5646L24.0562 23.5455C24.0411 23.5324 24.0256 23.5205 23.9863 23.4907L21.7149 21.2618L21.4356 20.9877C21.2811 20.8359 21.0547 20.7485 20.8139 20.7485C20.5736 20.7485 20.3468 20.8359 20.193 20.9873L19.8335 21.34L17.6181 23.509C17.6018 23.5209 17.5855 23.5336 17.5701 23.5471L17.5534 23.5618C17.2527 23.8184 16.8757 23.9646 16.4729 23.9646C16.03 23.9642 15.6144 23.7962 15.303 23.4911ZM19.0891 23.5407C19.2607 24.4778 20.0782 24.8977 20.8131 24.8977C21.5476 24.8977 22.3652 24.4778 22.5364 23.5407C22.588 23.2611 22.5376 22.9032 22.3918 22.4734L23.3944 23.4581L23.6363 23.6957L22.6901 24.6248C22.2523 25.0534 21.5687 25.2993 20.8131 25.2993C20.0576 25.2993 19.3723 25.0534 18.9342 24.6252L17.9887 23.6965L19.2337 22.4753C19.0875 22.9032 19.0379 23.2615 19.0891 23.5407ZM19.7585 22.2171H20.4886L20.8127 24.1064L21.1369 22.2171H21.867C22.1014 22.755 22.1983 23.1852 22.1455 23.4736C22.014 24.1922 21.3812 24.5132 20.8131 24.5132C20.2439 24.5132 19.6119 24.1918 19.4804 23.4736C19.4276 23.1848 19.5241 22.755 19.7585 22.2171ZM20.516 30.6641C20.263 30.9398 19.6349 31.1237 18.8778 31.1447C17.9907 31.1678 17.1367 30.96 16.8054 30.6367C16.3136 30.1572 15.9926 28.5996 15.8476 26.0076C16.5948 26.7425 17.7544 27.502 19.4935 27.7658C19.3457 27.5624 19.2488 27.2458 19.2488 26.8859C19.2488 26.8148 19.2556 26.7461 19.2631 26.679C19.387 26.7123 19.5114 26.7481 19.6345 26.7743C19.6317 26.8112 19.6282 26.8482 19.6282 26.8859C19.6282 27.392 19.8427 27.7884 20.1168 27.8385C20.2995 27.852 20.4854 27.8627 20.6777 27.8663C20.6662 28.1468 20.6586 28.4268 20.6574 28.7073C20.6618 29.2769 20.6805 29.8462 20.7424 30.4162L20.516 30.6641ZM24.8201 30.6363C24.4888 30.9596 23.6339 31.1658 22.7481 31.1444C21.9906 31.1233 21.3629 30.9394 21.1107 30.6637L20.8819 30.4146C20.9434 29.845 20.9609 29.2757 20.9641 28.7061C20.9625 28.4256 20.9549 28.1452 20.9426 27.8647C23.3527 27.8317 24.8733 26.9125 25.779 26.0219C25.6348 28.604 25.3135 30.156 24.8201 30.6363ZM27.6381 28.1813C27.5102 28.4093 26.9902 28.7168 26.2712 28.9341C26.4504 27.945 26.5636 26.6416 26.62 24.9827C26.6577 24.9235 26.6927 24.8663 26.7229 24.8135C26.8727 24.7241 27.018 24.6395 27.1722 24.5458C27.5611 24.309 27.9019 23.9769 28.201 23.5781C28.5518 24.512 28.7893 26.1216 27.6381 28.1813ZM26.7479 23.8955C24.4558 25.2926 22.6937 26.1586 20.9911 26.1586C19.4307 26.1586 17.8159 25.4257 15.794 24.23C16.0093 24.3034 16.2361 24.3491 16.4717 24.3491C16.9174 24.3491 17.3377 24.2053 17.6884 23.9499L18.6513 24.8949C19.1642 25.3963 19.9519 25.6839 20.8131 25.6839C21.6736 25.6839 22.4609 25.3959 22.9729 24.8945L23.9362 23.9491C24.2878 24.2049 24.7081 24.3491 25.1546 24.3491C25.7032 24.3491 26.2188 24.1406 26.6057 23.7612C27.403 22.9771 27.403 21.7023 26.6057 20.9193L24.4753 18.8259C24.8702 19.1127 25.3631 19.2847 25.899 19.2847C27.1893 19.2847 28.2392 18.2956 28.2392 17.0796C28.2392 15.8632 27.1893 14.8741 25.899 14.8741C24.6088 14.8741 23.5585 15.8632 23.5585 17.0796C23.5585 17.5615 23.7253 18.0064 24.0046 18.3694C23.2351 17.6484 22.0783 17.2333 20.8115 17.2333C19.5416 17.2333 18.3816 17.6508 17.6145 18.3762C17.8974 18.0119 18.0662 17.5646 18.0662 17.0796C18.0662 15.8632 17.0159 14.8741 15.7257 14.8741C14.4354 14.8741 13.3859 15.8632 13.3859 17.0796C13.3859 18.2956 14.4354 19.2847 15.7257 19.2847C16.2647 19.2847 16.7605 19.1103 17.1573 18.8203L15.0198 20.9189C14.2344 21.69 14.2265 22.9357 14.9876 23.7227C13.4364 22.5119 12.5886 19.2505 12.5708 16.7137C12.8778 16.4226 13.2119 15.6976 13.6783 14.4928C14.0576 13.5124 14.0612 12.7632 14.1482 12.0934C15.0607 10.8485 16.2647 9.70202 17.3615 9.29167C18.1024 9.01479 19.3926 8.84914 20.8127 8.84914C22.2329 8.84914 23.5223 9.01479 24.2636 9.29167C25.3612 9.70202 26.5656 10.8493 27.4784 12.095C27.565 12.7644 27.5694 13.5124 27.9476 14.4912C28.4457 15.7774 28.7921 16.5123 29.1167 16.7606C29.1957 19.4591 28.4279 22.8714 26.7479 23.8955ZM26.4345 18.5891C26.7451 18.5891 27.0331 18.5021 27.2786 18.3587C26.9267 18.6924 26.4385 18.8998 25.899 18.8998C24.8277 18.8998 23.9561 18.0826 23.9561 17.0792C23.9561 16.0754 24.8273 15.2582 25.899 15.2582C26.4385 15.2582 26.9271 15.466 27.2794 15.7997C27.0335 15.6559 26.7455 15.5689 26.4345 15.5689C25.5471 15.5689 24.8281 16.2454 24.8281 17.0792C24.8281 17.9134 25.5471 18.5891 26.4345 18.5891ZM15.1914 15.5693C14.8803 15.5693 14.5927 15.6563 14.3468 15.8001C14.6988 15.466 15.187 15.2586 15.7265 15.2586C16.7978 15.2586 17.6698 16.0758 17.6698 17.0796C17.6698 18.083 16.7982 18.9002 15.7265 18.9002C15.1874 18.9002 14.6992 18.6928 14.3468 18.3591C14.5927 18.5025 14.8803 18.5895 15.1914 18.5895C16.0784 18.5895 16.797 17.9138 16.797 17.0796C16.797 16.2458 16.0784 15.5693 15.1914 15.5693Z" fill="#FCFCFC"/>
<path d="M18.4265 19.8476L18.0694 19.5127L17.7126 19.8484L18.0694 20.1832L18.4265 19.8476Z" fill="#FCFCFC"/>
<path d="M17.5765 20.7702L17.2198 20.4346L16.863 20.7702L17.2198 21.1059L17.5765 20.7702Z" fill="#FCFCFC"/>
<path d="M17.9805 21.1062L18.3368 21.4418L18.6939 21.1062L18.3368 20.7705L17.9805 21.1062Z" fill="#FCFCFC"/>
<path d="M24.7624 20.7702L24.4057 20.4346L24.0486 20.7702L24.4057 21.1059L24.7624 20.7702Z" fill="#FCFCFC"/>
<path d="M23.9127 19.8484L23.5559 19.5127L23.1992 19.8476L23.5559 20.1832L23.9127 19.8484Z" fill="#FCFCFC"/>
<path d="M23.6455 21.1062L23.2884 20.7705L22.9316 21.1062L23.2884 21.4418L23.6455 21.1062Z" fill="#FCFCFC"/>
<defs>
<linearGradient id="paint0_linear_129_1979" x1="20" y1="0" x2="20" y2="40" gradientUnits="userSpaceOnUse">
<stop stop-color="#329D9C"/>
<stop offset="1" stop-color="#205072"/>
</linearGradient>
</defs>
</svg>
